<svg width="488" height="488" viewBox="0 0 488 488" fill="none" xmlns="http://www.w3.org/2000/svg">
<path d="M244 0L239.874 112.836C237.349 181.869 182.697 237.232 114.583 239.755L4.76837e-07 244L114.583 248.245C182.697 250.768 237.349 306.131 239.874 375.164L244 488L248.126 375.164C250.651 306.131 305.303 250.768 373.417 248.245L488 244L373.417 239.755C305.303 237.232 250.651 181.869 248.126 112.836L244 0Z" fill="white"/>
<path d="M123.627 32.6896L175.719 132.5C207.589 193.563 187.571 269.205 129.828 305.907L32.6898 367.648L134.016 313.259C194.249 280.927 268.892 301.177 305.134 359.682L364.373 455.31L312.281 355.5C280.411 294.436 300.429 218.795 358.172 182.093L455.31 120.351L353.984 174.741C293.751 207.073 219.108 186.823 182.866 128.318L123.627 32.6896Z" fill="white"/>
<path d="M35.5073 122L129.86 182.04C187.585 218.772 207.565 294.424 175.665 355.471L122 458.166L182.918 359.715C219.131 301.192 293.764 280.903 354.013 313.203L452.493 366L358.14 305.96C300.415 269.228 280.435 193.576 312.335 132.529L366 29.8343L305.082 128.285C268.869 186.808 194.236 207.097 133.987 174.797L35.5073 122Z" fill="white"/>
</svg>
